HIERARCHY
ROOT Hips
{
    OFFSET 0.000 93.594 0.000
    CHANNELS 6 Xposition Yposition Zposition Yrotation Xrotation Zrotation
    JOINT RightHip
    {
        OFFSET -9.500 -1.594 0.000
        CHANNELS 3 Yrotation Xrotation Zrotation
        JOINT RightKnee
        {
            OFFSET 0.000 -42.000 0.000
            CHANNELS 3 Yrotation Xrotation Zrotation
            JOINT RightAnkle
            {
                OFFSET 0.000 -42.000 0.000
                CHANNELS 3 Yrotation Xrotation Zrotation
                End Site
                {
                    OFFSET 0.000 -8.000 17.500
                }
            }
        }
    }
    JOINT LeftHip
    {
        OFFSET 9.500 -1.594 0.000
        CHANNELS 3 Yrotation Xrotation Zrotation
        JOINT LeftKnee
        {
            OFFSET 0.000 -42.000 0.000
            CHANNELS 3 Yrotation Xrotation Zrotation
            JOINT LeftAnkle
            {
                OFFSET 0.000 -42.000 0.000
                CHANNELS 3 Yrotation Xrotation Zrotation
                End Site
                {
                    OFFSET 0.000 -8.000 17.500
                }
            }
        }
    }
    JOINT Chest
    {
        OFFSET 0.000 14.348 0.000
        CHANNELS 3 Yrotation Xrotation Zrotation
        JOINT Chest2
        {
            OFFSET 0.000 9.746 0.000
            CHANNELS 3 Yrotation Xrotation Zrotation
            JOINT Chest3
            {
                OFFSET 0.000 10.149 0.000
                CHANNELS 3 Yrotation Xrotation Zrotation
                JOINT Chest4
                {
                    OFFSET 0.000 9.746 0.000
                    CHANNELS 3 Yrotation Xrotation Zrotation
                    JOINT Neck
                    {
                        OFFSET 0.000 10.417 0.000
                        CHANNELS 3 Yrotation Xrotation Zrotation
                        JOINT Head
                        {
                            OFFSET 0.000 9.000 0.000
                            CHANNELS 3 Yrotation Xrotation Zrotation
                            End Site
                            {
                                OFFSET 0.000 16.000 0.000
                            }
                        }
                    }
                    JOINT RightCollar
                    {
                        OFFSET -3.200 6.945 0.000
                        CHANNELS 3 Yrotation Xrotation Zrotation
                        JOINT RightShoulder
                        {
                            OFFSET -12.800 0.000 0.000
                            CHANNELS 3 Yrotation Xrotation Zrotation
                            JOINT RightElbow
                            {
OFFSET -0 -27 0.000
						CHANNELS 3 Xrotation Yrotation Zrotation
                                JOINT RightWrist
                                {
OFFSET -0 -26 0.000
						CHANNELS 3 Xrotation Yrotation Zrotation
                                    JOINT RightFinger0
                                    {
OFFSET -0.196 -2.56 3.210
						CHANNELS 3 Xrotation Yrotation Zrotation
                                        JOINT RightFinger01
                                        {
OFFSET -0 -3.788 0.000
						CHANNELS 3 Xrotation Yrotation Zrotation
                                            JOINT RightFinger0Nub
                                            {
OFFSET -0 -2.631 0.000
						CHANNELS 3 Xrotation Yrotation Zrotation
                                                End Site
                                                {
OFFSET 0 -2.256 0
                                                }
                                            }
                                        }
                                    }
                                    JOINT RightFinger1
                                    {
OFFSET -0.523 -3.316 2.035
						CHANNELS 3 Xrotation Yrotation Zrotation
                                        JOINT RightFinger11
                                        {
OFFSET 0.094 -5.366 1.028
						CHANNELS 3 Xrotation Yrotation Zrotation
                                            JOINT RightFinger12
                                            {
OFFSET -0 -3.723 0.000
						CHANNELS 3 Xrotation Yrotation Zrotation
                                                JOINT RightFinger1Nub
                                                {
OFFSET -0 -2.111 0.000
						CHANNELS 3 Xrotation Yrotation Zrotation
                                                    End Site
                                                    {
OFFSET 0 -1.857 0
                                                    }
                                                }
                                            }
                                        }
                                    }
                                    JOINT RightFinger2
                                    {
OFFSET -0.532 -3.479 0.778
						CHANNELS 3 Xrotation Yrotation Zrotation
                                        JOINT RightFinger21
                                        {
OFFSET 0.086 -5.322 0.323
						CHANNELS 3 Xrotation Yrotation Zrotation
                                            JOINT RightFinger22
                                            {
OFFSET -0 -4.062 0.000
						CHANNELS 3 Xrotation Yrotation Zrotation
                                                JOINT RightFinger2Nub
                                                {
OFFSET -0 -2.547 0.000
						CHANNELS 3 Xrotation Yrotation Zrotation
                                                    End Site
                                                    {
OFFSET 0 -2.031 0
                                                    }
                                                }
                                            }
                                        }
                                    }
                                    JOINT RightFinger3
                                    {
OFFSET -0.553 -3.461 -0.133
						CHANNELS 3 Xrotation Yrotation Zrotation
                                        JOINT RightFinger31
                                        {
OFFSET 0.023 -4.767 -0.493
						CHANNELS 3 Xrotation Yrotation Zrotation
                                            JOINT RightFinger32
                                            {
OFFSET -0 -3.541 0.000
						CHANNELS 3 Xrotation Yrotation Zrotation
                                                JOINT RightFinger3Nub
                                                {
OFFSET -0 -2.456 0.000
						CHANNELS 3 Xrotation Yrotation Zrotation
                                                    End Site
                                                    {
OFFSET 0 -1.91 0
                                                    }
                                                }
                                            }
                                        }
                                    }
                                    JOINT RightFinger4
                                    {
OFFSET -0.483 -3.251 -1.236
						CHANNELS 3 Xrotation Yrotation Zrotation
                                        JOINT RightFinger41
                                        {
OFFSET 0.023 -4.259 -1.122
						CHANNELS 3 Xrotation Yrotation Zrotation
                                            JOINT RightFinger42
                                            {
OFFSET -0 -2.835 0.000
						CHANNELS 3 Xrotation Yrotation Zrotation
                                                JOINT RightFinger4Nub
                                                {
OFFSET -0 -1.792 0.000
						CHANNELS 3 Xrotation Yrotation Zrotation
                                                    End Site
                                                    {
OFFSET 0 -1.692 0
                                                    }
                                                }
                                            }
                                        }
                                    }
                                }
                            }
                        }
                    }
                    JOINT LeftCollar
                    {
                        OFFSET 3.200 6.945 0.000
                        CHANNELS 3 Yrotation Xrotation Zrotation
                        JOINT LeftShoulder
                        {
                            OFFSET 12.800 0.000 0.000
                            CHANNELS 3 Yrotation Xrotation Zrotation
                            JOINT LeftElbow
                            {
OFFSET -0 -27 0.000
						CHANNELS 3 Xrotation Yrotation Zrotation
                                JOINT LeftWrist
                                {
OFFSET -0 -26 0.000
						CHANNELS 3 Xrotation Yrotation Zrotation
                                    JOINT LeftFinger0
                                    {
OFFSET -0.196 -2.56 3.210
						CHANNELS 3 Xrotation Yrotation Zrotation
                                        JOINT LeftFinger01
                                        {
OFFSET -0 -3.788 0.000
						CHANNELS 3 Xrotation Yrotation Zrotation
                                            JOINT LeftFinger0Nub
                                            {
OFFSET -0 -2.631 0.000
						CHANNELS 3 Xrotation Yrotation Zrotation
                                                End Site
                                                {
OFFSET 0 -2.256 0
                                                }
                                            }
                                        }
                                    }
                                    JOINT LeftFinger1
                                    {
OFFSET -0.523 -3.316 2.035
						CHANNELS 3 Xrotation Yrotation Zrotation
                                        JOINT LeftFinger11
                                        {
OFFSET 0.094 -5.366 1.028
						CHANNELS 3 Xrotation Yrotation Zrotation
                                            JOINT LeftFinger12
                                            {
OFFSET -0 -3.723 0.000
						CHANNELS 3 Xrotation Yrotation Zrotation
                                                JOINT LeftFinger1Nub
                                                {
OFFSET -0 -2.111 0.000
						CHANNELS 3 Xrotation Yrotation Zrotation
                                                    End Site
                                                    {
OFFSET 0 -1.857 0
                                                    }
                                                }
                                            }
                                        }
                                    }
                                    JOINT LeftFinger2
                                    {
OFFSET -0.532 -3.479 0.778
						CHANNELS 3 Xrotation Yrotation Zrotation
                                        JOINT LeftFinger21
                                        {
OFFSET 0.086 -5.322 0.323
						CHANNELS 3 Xrotation Yrotation Zrotation
                                            JOINT LeftFinger22
                                            {
OFFSET -0 -4.062 0.000
						CHANNELS 3 Xrotation Yrotation Zrotation
                                                JOINT LeftFinger2Nub
                                                {
OFFSET -0 -2.547 0.000
						CHANNELS 3 Xrotation Yrotation Zrotation
                                                    End Site
                                                    {
OFFSET 0 -2.031 0
                                                    }
                                                }
                                            }
                                        }
                                    }
                                    JOINT LeftFinger3
                                    {
OFFSET -0.553 -3.461 -0.133
						CHANNELS 3 Xrotation Yrotation Zrotation
                                        JOINT LeftFinger31
                                        {
OFFSET 0.023 -4.767 -0.493
						CHANNELS 3 Xrotation Yrotation Zrotation
                                            JOINT LeftFinger32
                                            {
OFFSET -0 -3.541 0.000
						CHANNELS 3 Xrotation Yrotation Zrotation
                                                JOINT LeftFinger3Nub
                                                {
OFFSET -0 -2.456 0.000
						CHANNELS 3 Xrotation Yrotation Zrotation
                                                    End Site
                                                    {
OFFSET 0 -1.91 0
                                                    }
                                                }
                                            }
                                        }
                                    }
                                    JOINT LeftFinger4
                                    {
OFFSET -0.483 -3.251 -1.236
						CHANNELS 3 Xrotation Yrotation Zrotation
                                        JOINT LeftFinger41
                                        {
OFFSET 0.023 -4.259 -1.122
						CHANNELS 3 Xrotation Yrotation Zrotation
                                            JOINT LeftFinger42
                                            {
OFFSET -0 -2.835 0.000
						CHANNELS 3 Xrotation Yrotation Zrotation
                                                JOINT LeftFinger4Nub
                                                {
OFFSET -0 -1.792 0.000
						CHANNELS 3 Xrotation Yrotation Zrotation
                                                    End Site
                                                    {
OFFSET 0 -1.692 0
                                                    }
                                                }
                                            }
                                        }
                                    }
                                }
                            }
                        }
                    }
                }
            }
        }
    }
}
MOTION

Frames: 9
Frame Time: 0.017
-121.67 92.21 7.94 162.70 -3.73 -3.84 5.78 -7.97 9.28 0.00 25.01 0.00 -16.38 -13.59 -2.04 -1.52 -12.38 13.82 0.00 29.77 0.00 9.06 -7.49 -10.65 -2.15 2.30 2.94 -0.53 0.59 0.74 -0.86 1.00 1.24 -2.76 0.78 1.11 -43.85 65.85 5.40 -14.98 20.39 13.89 19.29 5.91 -4.83 -10.79 -17.73 -6.64 -18.54 19.93 11.86 -8.52 14.86 10.43 -45.63 -0 26.98 19.27 -0 -2.84 10.46 -0 0.00 0 -0 0.00 -15 -0 25.63 0 -0 7.48 0 -0 3.74 0 -0 0.00 0 -0 18.31 0 -0 18.31 0 -0 18.31 0 -0 0.00 15 -0 15.46 0 -0 15.46 0 -0 15.46 0 -0 0.00 25 -0 -30.88 0 -0 -30.88 0 -0 -30.88 5.37 -0.23 -5.98 -3.61 -15.00 17.62 3.39 -18.57 3.51 -4.38 3.63 -4.23 -6.55 0 -43.34 -3.06 0 0.87 -3.78 0 0.00 0.00 0 0.00 -15.00 0 -36.94 0.00 0 31.45 0.00 0 15.73 0.00 0 0.00 0.00 0 -0.43 0.00 0 -0.43 0.00 0 -0.43 0.00 0 0.00 15.00 0 -41.99 0.00 0 -41.99 0.00 0 -41.99 0.00 0 0.00 25.00 0 -14.56 0.00 0 -14.56 0.00 0 -14.56 
-121.55 92.16 7.79 162.61 -3.66 -3.79 5.77 -8.10 9.30 0.00 25.36 0.00 -16.31 -13.86 -2.06 -1.69 -12.44 13.83 0.00 30.12 0.00 9.32 -7.69 -10.80 -2.05 2.20 2.84 -0.51 0.56 0.72 -0.82 0.95 1.19 -2.76 0.78 1.11 -44.02 66.02 5.31 -14.93 20.39 13.91 19.25 5.86 -4.78 -10.74 -17.63 -6.62 -18.85 20.04 12.03 -8.65 15.01 10.46 -45.68 -0 26.99 19.18 -0 -2.83 10.36 -0 0.00 0 -0 0.00 -15 -0 25.65 0 -0 7.52 0 -0 3.76 0 -0 0.00 0 -0 18.35 0 -0 18.35 0 -0 18.35 0 -0 0.00 15 -0 15.56 0 -0 15.56 0 -0 15.56 0 -0 0.00 25 -0 -30.97 0 -0 -30.97 0 -0 -30.97 5.34 -0.23 -5.96 -3.68 -14.89 17.73 3.50 -18.4 3.45 -3.80 3.13 -4.20 -6.78 0 -43.10 -3.50 0 1.11 -4.68 0 0.00 0.00 0 0.00 -15.00 0 -37.13 0.00 0 31.71 0.00 0 15.85 0.00 0 0.00 0.00 0 -0.45 0.00 0 -0.45 0.00 0 -0.45 0.00 0 0.00 15.00 0 -36.51 0.00 0 -36.51 0.00 0 -36.51 0.00 0 0.00 25.00 0 -14.28 0.00 0 -14.28 0.00 0 -14.28 
-121.47 92.12 7.65 162.61 -3.66 -3.79 5.75 -8.08 9.33 -0.00 25.57 -0.00 -16.30 -14.08 -2.03 -1.74 -12.42 13.86 0.00 30.33 0.00 9.37 -7.90 -10.88 -2.05 2.20 2.84 -0.51 0.56 0.72 -0.82 0.95 1.19 -2.76 0.78 1.11 -44.02 66.02 5.31 -14.93 20.39 13.91 19.25 5.86 -4.78 -10.74 -17.63 -6.62 -18.85 20.04 12.03 10.7 22.17 8.77 -44.97 -0 26.13 20.59 -0 -3.69 11.14 -0 0.00 0 -0 0.00 -15 -0 22.75 0 -0 11.02 0 -0 5.51 0 -0 0.00 0 -0 14.27 0 -0 14.27 0 -0 14.27 0 -0 0.00 15 -0 8.08 0 -0 8.08 0 -0 8.08 0 -0 0.00 25 -0 -23.99 0 -0 -23.99 0 -0 -23.99 6.09 3.90 -3.64 -7.27 -16.11 16.68 -1.43 -19.93 1.23 -9.82 7.38 -7.12 -3.10 0 -45.67 3.84 0 -1.46 -8.76 0 0.00 0.00 0 0.00 -15.00 0 -31.74 0.00 0 29.48 0.00 0 14.74 0.00 0 0.00 0.00 0 1.04 0.00 0 1.04 0.00 0 1.04 0.00 0 0.00 15.00 0 -49.53 0.00 0 -49.53 0.00 0 -49.53 0.00 0 0.00 25.00 0 -16.24 0.00 0 -16.24 0.00 0 -16.24 
-121.41 92.09 7.50 162.61 -3.66 -3.79 5.73 -8.06 9.36 -0.00 25.74 0.00 -16.30 -14.28 -2.01 -1.77 -12.39 13.87 0.00 30.51 -0.00 9.40 -8.10 -10.94 -2.05 2.20 2.84 -0.51 0.56 0.72 -0.82 0.95 1.19 -2.76 0.78 1.11 -44.02 66.02 5.31 -14.93 20.39 13.91 19.25 5.86 -4.78 -10.74 -17.63 -6.62 -18.85 20.04 12.03 10.38 22.64 9.00 -45.01 -0 26.13 20.53 -0 -3.69 10.95 -0 0.00 0 -0 0.00 -15 -0 22.47 0 -0 10.87 0 -0 5.44 0 -0 0.00 0 -0 14.36 0 -0 14.36 0 -0 14.36 0 -0 0.00 15 -0 8.34 0 -0 8.34 0 -0 8.34 0 -0 0.00 25 -0 -23.93 0 -0 -23.93 0 -0 -23.93 6.09 3.81 -3.62 -7.23 -16.11 16.63 -1.58 -20.19 1.26 -10.05 7.43 -7.28 -3.12 0 -45.57 3.81 0 -1.36 -8.62 0 0.00 0.00 0 0.00 -15.00 0 -31.40 0.00 0 29.44 0.00 0 14.72 0.00 0 0.00 0.00 0 1.07 0.00 0 1.07 0.00 0 1.07 0.00 0 0.00 15.00 0 -51.34 0.00 0 -51.34 0.00 0 -51.34 0.00 0 0.00 25.00 0 -16.39 0.00 0 -16.39 0.00 0 -16.39 
-121.47 92.17 7.49 165.00 -3.69 -4.03 4.91 -7.44 9.52 0.00 25.00 0.00 -18.37 -14.37 -1.15 1.87 -12.14 14.16 0.00 27.76 0.00 2.22 -10.17 -10.93 -3.14 4.43 3.85 -0.76 1.13 0.99 -1.22 1.92 1.63 -2.75 0.75 1.19 -39.11 36.23 10.07 -26.21 44.49 3.81 19.75 6.35 -5.99 -7.81 -18.32 -5.03 -4.63 25.13 1.63 -4.67 16.3 9.40 -45.05 -0 26.11 20.45 -0 -3.71 10.79 -0 0.00 0 -0 0.00 -15 -0 24.68 0 -0 4.37 0 -0 2.18 0 -0 0.00 0 -0 14.95 0 -0 14.95 0 -0 14.95 0 -0 0.00 15 -0 8.59 0 -0 8.59 0 -0 8.59 0 -0 0.00 25 -0 -23.89 0 -0 -23.89 0 -0 -23.89 5.66 0.11 -5.33 -7.16 -16.09 16.55 -1.69 -20.44 1.33 -10.27 7.49 -7.41 -3.14 0 -45.46 3.76 0 -1.24 -8.50 0 0.00 0.00 0 0.00 -15.00 0 -31.16 0.00 0 29.42 0.00 0 14.71 0.00 0 0.00 0.00 0 1.09 0.00 0 1.09 0.00 0 1.09 0.00 0 0.00 15.00 0 -52.90 0.00 0 -52.90 0.00 0 -52.90 0.00 0 0.00 25.00 0 -16.57 0.00 0 -16.57 0.00 0 -16.57 
-121.53 92.15 7.48 165.02 -3.69 -4.02 4.88 -7.60 9.47 -0.00 25.31 -0.00 -18.39 -14.48 -1.07 1.80 -12.35 14.12 -0.00 28.16 0.00 2.22 -10.34 -10.88 -3.14 4.41 3.87 -0.77 1.12 0.99 -1.22 1.91 1.64 -2.75 0.75 1.19 -39.16 36.21 10.03 -26.26 44.49 3.77 19.72 6.33 -5.98 -7.70 -18.33 -4.97 -4.75 25.53 1.65 -4.65 16.24 9.39 -45.09 -0 26.05 20.36 -0 -3.77 10.67 -0 0.00 0 -0 0.00 -15 -0 24.73 0 -0 4.44 0 -0 2.22 0 -0 0.00 0 -0 15.06 0 -0 15.06 0 -0 15.06 0 -0 0.00 15 -0 8.84 0 -0 8.84 0 -0 8.84 0 -0 0.00 25 -0 -23.85 0 -0 -23.85 0 -0 -23.85 5.64 0.07 -5.37 -8.81 -16.96 17.43 -0.56 -19.27 0.98 -10.45 7.5 -7.51 -3.18 0 -45.34 3.69 0 -1.12 -8.38 0 0.00 0.00 0 0.00 -15.00 0 -31.05 0.00 0 29.44 0.00 0 14.72 0.00 0 0.00 0.00 0 1.11 0.00 0 1.11 0.00 0 1.11 0.00 0 0.00 15.00 0 -54.17 0.00 0 -54.17 0.00 0 -54.17 0.00 0 0.00 25.00 0 -16.69 0.00 0 -16.69 0.00 0 -16.69 
-121.58 92.11 7.48 165.02 -3.69 -4.02 4.85 -7.75 9.44 -0.00 25.60 0.00 -18.39 -14.59 -1.01 1.74 -12.51 14.10 -0.00 28.46 0.00 2.28 -10.44 -10.85 -3.09 4.31 3.94 -0.75 1.10 1.01 -1.20 1.87 1.67 -2.76 0.75 1.18 -39.30 36.19 9.92 -26.43 44.53 3.65 19.62 6.45 -5.98 -7.67 -18.27 -5.03 -4.99 25.93 1.79 -4.64 16.16 9.36 -45.11 -0 26.08 20.31 -0 -3.74 10.48 -0 0.00 0 -0 0.00 -15 -0 24.74 0 -0 5.07 0 -0 2.54 0 -0 0.00 0 -0 15.17 0 -0 15.17 0 -0 15.17 0 -0 0.00 15 -0 9.08 0 -0 9.08 0 -0 9.08 0 -0 0.00 25 -0 -23.80 0 -0 -23.80 0 -0 -23.80 5.54 0.14 -5.45 -8.82 -16.96 17.38 -0.48 -19.27 1.09 -10.57 7.5 -7.53 -3.17 0 -45.39 3.71 0 -1.17 -8.12 0 0.00 0.00 0 0.00 -15.00 0 -31.15 0.00 0 29.48 0.00 0 14.74 0.00 0 0.00 0.00 0 1.07 0.00 0 1.07 0.00 0 1.07 0.00 0 0.00 15.00 0 12.21 0.00 0 12.21 0.00 0 12.21 0.00 0 0.00 25.00 0 -16.82 0.00 0 -16.82 0.00 0 -16.82 
-121.63 92.08 7.47 165.02 -3.69 -4.02 4.82 -7.88 9.41 0.00 25.84 -0.00 -18.37 -14.68 -0.95 1.72 -12.64 14.07 -0.00 28.69 -0.00 2.31 -10.52 -10.81 -3.09 4.27 3.96 -0.75 1.09 1.01 -1.20 1.85 1.67 -2.76 0.75 1.18 -39.34 36.18 9.88 -26.48 44.54 3.60 19.60 6.44 -5.95 -7.64 -18.20 -5.09 -5.18 26.26 1.89 -4.62 16.08 9.33 -45.14 -0 26.03 20.25 -0 -3.79 10.37 -0 0.00 0 -0 0.00 -15 -0 24.69 0 -0 5.18 0 -0 2.59 0 -0 0.00 0 -0 15.28 0 -0 15.28 0 -0 15.28 0 -0 0.00 15 -0 9.32 0 -0 9.32 0 -0 9.32 0 -0 0.00 25 -0 -23.77 0 -0 -23.77 0 -0 -23.77 5.51 0.11 -5.47 -8.72 -16.91 17.29 -0.42 -19.36 1.25 -10.67 7.46 -7.54 -3.18 0 -45.41 3.68 0 -1.20 -7.57 0 0.00 0.00 0 0.00 -15.00 0 -31.22 0.00 0 29.50 0.00 0 14.75 0.00 0 0.00 0.00 0 1.03 0.00 0 1.03 0.00 0 1.03 0.00 0 0.00 15.00 0 11.52 0.00 0 11.52 0.00 0 11.52 0.00 0 0.00 25.00 0 -16.95 0.00 0 -16.95 0.00 0 -16.95 
-121.67 92.06 7.46 165.05 -3.69 -4.01 4.78 -7.99 9.37 -0.00 26.06 -0.00 -18.36 -14.76 -0.91 1.66 -12.73 14.03 0.00 28.86 -0.00 2.36 -10.56 -10.78 -3.11 4.22 3.96 -0.76 1.08 1.01 -1.21 1.83 1.68 -2.76 0.75 1.18 -39.38 36.19 9.82 -26.54 44.56 3.55 19.59 6.44 -5.90 -7.48 -18.21 -5.02 -5.17 26.43 1.78 -4.6 16.02 9.30 -45.16 -0 26.00 20.22 -0 -3.82 10.23 -0 0.00 0 -0 0.00 -15 -0 24.65 0 -0 5.25 0 -0 2.63 0 -0 0.00 0 -0 15.38 0 -0 15.38 0 -0 15.38 0 -0 0.00 15 -0 9.41 0 -0 9.41 0 -0 9.41 0 -0 0.00 25 -0 -23.75 0 -0 -23.75 0 -0 -23.75 5.47 0.08 -5.48 -8.68 -16.91 17.23 -0.24 -19.44 1.42 -10.76 7.38 -7.58 -3.24 0 -45.21 3.57 0 -1.00 -6.94 0 0.00 0.00 0 0.00 -15.00 0 -31.17 0.00 0 29.54 0.00 0 14.77 0.00 0 0.00 0.00 0 1.01 0.00 0 1.01 0.00 0 1.01 0.00 0 0.00 15.00 0 -47.28 0.00 0 -47.28 0.00 0 -47.28 0.00 0 0.00 25.00 0 -17.04 0.00 0 -17.04 0.00 0 -17.04 
